<?xml version="1.0" encoding="UTF-8" standalone="no"?>
<!-- Created with Inkscape (http://www.inkscape.org/) -->

<svg
   version="1.1"
   id="svg2"
   xml:space="preserve"
   width="2133.3333"
   height="1600"
   viewBox="0 0 2133.3333 1600"
   xmlns="http://www.w3.org/2000/svg"
   xmlns:svg="http://www.w3.org/2000/svg"><defs
     id="defs6" /><g
     id="g8"
     transform="matrix(1.3333333,0,0,-1.3333333,0,1600)"><g
       id="g10"
       transform="scale(0.1)"><path
         d="M 0,0 H 16000 V 12000 H 0 Z"
         style="fill:#000000;fill-opacity:1;fill-rule:nonzero;stroke:none"
         id="path12" /><path
         d="m 4049.9,3401.2 h -266.3 c -108.7,0 -157.7,54.89 -157.7,183.9 0,129 49,183.9 157.7,183.9 h 125.29 c 101.51,0 141.01,-44.2 141.01,-146.9 z m -103.91,489.6 H 3771.6 c -168.4,0 -273.4,-97.9 -273.4,-300.9 0,-204.2 105,-303.3 273.4,-303.3 h 278.3 v -28.7 c 0,-90.8 -31.1,-127.8 -125.4,-127.8 h -360.7 v -121.8 h 375 c 176.7,0 238.8,70.5 238.8,249.6 v 363 c 0,181.5 -81.21,269.9 -231.61,269.9"
         style="fill:#ffffff;fill-opacity:1;fill-rule:nonzero;stroke:none"
         id="path14" /><path
         d="m 4354.3,3260.3 h 126.598 v 630.5 H 4354.3 Z"
         style="fill:#ffffff;fill-opacity:1;fill-rule:nonzero;stroke:none"
         id="path16" /><path
         d="m 4354.3,3981.6 h 127.801 v 146.797 H 4354.3 Z"
         style="fill:#ffffff;fill-opacity:1;fill-rule:nonzero;stroke:none"
         id="path18" /><path
         d="m 4812.9,4040.1 h -127.8 v -149.3 h -86 v -121.79 h 86 V 3477.6 c 0,-164.79 56.1,-217.29 186.3,-217.29 h 113.39 v 115.79 h -87.1 c -59.69,0 -84.79,23.9 -84.79,94.4 v 298.51 h 174.3 v 121.79 h -174.3"
         style="fill:#ffffff;fill-opacity:1;fill-rule:nonzero;stroke:none"
         id="path20" /><path
         d="m 5054.1,3577.9 h 426.297 v 121.801 H 5054.1 Z"
         style="fill:#ffffff;fill-opacity:1;fill-rule:nonzero;stroke:none"
         id="path22" /><path
         d="m 5618.89,3223.3 c 0,-70.5 -23.89,-94.4 -86,-94.4 h -82.39 v -121.8 h 111.11 c 128.99,0 185.09,52.6 185.09,217.4 v 666.3 h -127.81"
         style="fill:#ffffff;fill-opacity:1;fill-rule:nonzero;stroke:none"
         id="path24" /><path
         d="m 5618.9,3981.6 h 127.797 v 146.797 H 5618.9 Z"
         style="fill:#ffffff;fill-opacity:1;fill-rule:nonzero;stroke:none"
         id="path26" /><path
         d="m 5928.2,3981.6 h 127.789 v 146.797 H 5928.2 Z"
         style="fill:#ffffff;fill-opacity:1;fill-rule:nonzero;stroke:none"
         id="path28" /><path
         d="m 5928.2,3260.3 h 126.59 v 630.5 H 5928.2 Z"
         style="fill:#ffffff;fill-opacity:1;fill-rule:nonzero;stroke:none"
         id="path30" /><path
         d="M 6235.1,3706.89 V 3260.3 h 126.5 v 427.5 c 0,54.9 25.1,81.2 81.21,81.2 H 6665 v 121.8 h -259.2 c -124.2,0 -170.7,-57.3 -170.7,-183.91"
         style="fill:#ffffff;fill-opacity:1;fill-rule:nonzero;stroke:none"
         id="path32" /><path
         d="m 7288.3,3415.5 c 0,-22.7 -9.6,-32.2 -34.6,-32.2 h -265.1 c -63.3,0 -88.41,29.81 -88.41,76.4 0,46.6 23.91,74 90.81,74 h 297.3 z m -95.5,475.3 h -378.6 v -121.79 h 377.4 c 69.2,0 96.7,-38.21 96.7,-87.21 v -47.7 h -299.7 c -155.3,0 -212.6,-66.9 -212.6,-181.6 0,-119.39 62.09,-192.2 211.4,-192.2 h 294.89 c 106.31,0 130.21,35.8 130.21,126.6 V 3683 c 0,119.4 -62.1,207.8 -219.7,207.8"
         style="fill:#ffffff;fill-opacity:1;fill-rule:nonzero;stroke:none"
         id="path34" /><path
         d="m 7535.5,3577.9 h 426.301 v 121.801 H 7535.5 Z"
         style="fill:#ffffff;fill-opacity:1;fill-rule:nonzero;stroke:none"
         id="path36" /><path
         d="m 8480,3383.3 h -124.2 c -102.7,0 -142.1,45.4 -142.1,152.79 V 3769 H 8480 c 109.9,0 157.7,-57.3 157.7,-193.5 0,-136.11 -47.8,-192.2 -157.7,-192.2 m 13.2,507.5 h -279.5 v 273.5 h -126.5 v -634.11 c 0,-181.49 80,-269.89 231.6,-269.89 h 174.4 c 167.2,0 272.2,102.7 272.2,315.2 0,212.6 -105,315.3 -272.2,315.3"
         style="fill:#ffffff;fill-opacity:1;fill-rule:nonzero;stroke:none"
         id="path38" /><path
         d="M 8915.9,3706.89 V 3260.3 h 126.6 v 427.5 c 0,54.9 25,81.2 81.2,81.2 h 222.1 v 121.8 h -259.2 c -124.1,0 -170.7,-57.3 -170.7,-183.91"
         style="fill:#ffffff;fill-opacity:1;fill-rule:nonzero;stroke:none"
         id="path40" /><path
         d="m 9969.1,3415.5 c 0,-22.7 -9.5,-32.2 -34.6,-32.2 h -265.11 c -63.29,0 -88.4,29.81 -88.4,76.4 0,46.6 23.91,74 90.81,74 h 297.3 z m -95.5,475.3 H 9495 v -121.79 h 377.4 c 69.2,0 96.7,-38.21 96.7,-87.21 v -47.7 h -299.71 c -155.29,0 -212.59,-66.9 -212.59,-181.6 0,-119.39 62.09,-192.2 211.4,-192.2 h 294.89 c 106.31,0 130.21,35.8 130.21,126.6 V 3683 c 0,119.4 -62.1,207.8 -219.7,207.8"
         style="fill:#ffffff;fill-opacity:1;fill-rule:nonzero;stroke:none"
         id="path42" /><path
         d="m 10621.1,3890.8 h -260.3 c -63.3,0 -88.4,-23.91 -88.4,-97.9 v -532.6 h 126.6 v 490.79 c 0,11.91 4.8,17.91 15.5,17.91 h 206.6 c 132.6,0 189.9,-54.9 189.9,-154 v -354.7 h 127.8 V 3615 c 0,174.3 -103.9,275.8 -317.7,275.8"
         style="fill:#ffffff;fill-opacity:1;fill-rule:nonzero;stroke:none"
         id="path44" /><path
         d="m 11086.8,3575.5 c 0,-212.5 105.1,-315.2 273.5,-315.2 h 324.8 v 123 h -312.9 c -109.9,0 -157.6,56.1 -157.6,192.2 0,136.2 47.7,193.51 157.6,193.51 h 312.9 v 121.79 h -324.8 c -168.4,0 -273.5,-102.69 -273.5,-315.3"
         style="fill:#ffffff;fill-opacity:1;fill-rule:nonzero;stroke:none"
         id="path46" /><path
         d="m 12184.2,3890.8 h -222.1 v 273.5 h -126.6 v -904 h 126.6 V 3769 h 222.1 c 131.4,0 189.9,-57.3 189.9,-154 v -354.7 h 127.7 V 3615 c 0,173.1 -105,275.8 -317.6,275.8"
         style="fill:#ffffff;fill-opacity:1;fill-rule:nonzero;stroke:none"
         id="path48" /><path
         d="m 9073.7,7807.1 -174.6,-150.7 -0.3,-0.3 c -22.2,-19.2 -56.6,-12 -69.2,14.5 l -70.3,146.7 35,30.2 v 0.1 l 65.2,56.3 19.89,-41.7 18.3,-38.3 4.81,4.1 105.19,91 35.11,30.4 57.2,-119.6 z M 7906.5,5414.9 c -27.11,-37.3 -70.8,-59.5 -116.9,-59.5 -30.7,0 -60,9.5 -84.81,27.6 -31.19,22.61 -51.59,56.1 -57.69,94.2 -6,38.1 3.09,76.3 25.8,107.4 27,37.2 70.7,59.4 116.89,59.4 30.61,0 59.91,-9.5 84.71,-27.5 31.2,-22.6 51.7,-56.1 57.7,-94.1 6.1,-38.1 -3.1,-76.2 -25.7,-107.5 m 1145.3,841.9 c 5.89,38.1 26.4,71.6 57.7,94.4 24.7,18.1 53.99,27.6 84.6,27.6 8,0 15.69,-0.6 22.79,-1.8 38.11,-6.1 71.6,-26.6 94.31,-57.8 22.7,-31.4 31.8,-69.5 25.69,-107.4 -6.09,-38.1 -26.59,-71.5 -57.59,-94.1 -24.91,-18.1 -54.11,-27.7 -84.51,-27.7 -7.79,0 -15.59,0.7 -22.99,1.9 -38,5.9 -71.5,26.4 -94.2,57.6 -22.7,31.2 -31.9,69.4 -25.8,107.3 m -2250.9,361.7 -174.7,-150.9 -0.21,-0.1 c -22.19,-19.2 -56.49,-12 -69.19,14.4 l -70.3,146.8 35.2,30.4 65,56.1 38.2,-79.9 109.8,94.9 35.3,30.5 57.2,-119.5 z M 7217,8028.7 c 0,79.6 64.8,144.4 144.4,144.4 79.59,0 144.4,-64.8 144.4,-144.4 0,-79.6 -64.81,-144.4 -144.4,-144.4 -79.6,0 -144.4,64.8 -144.4,144.4 m 2604.5,-50.9 c -12.65,20.33 -25.75,40.38 -39.08,60.3 -29.45,44.06 -60.6,87.12 -93.52,129.14 -2.19,2.8 -4.29,5.66 -6.5,8.46 l -0.01,-0.01 c 0,0.01 -0.01,0.02 -0.02,0.03 l -97.61,-196.22 -270.28,-543.62 c -23.07,-45.45 -62.61,-79.12 -111.09,-94.95 l -463.7,-150.62 h -0.04 L 8888.77,7483 h 0.03 c 13.4,-1.8 27,-2.7 40.59,-2.7 32.9,0 66.01,5.2 98.21,15.7 166.2,54 257.5,233.1 203.5,399.4 -54.1,166.2 -233.3,257.2 -399.3,203.5 -80.6,-26.2 -146.1,-82.2 -184.51,-157.6 -38.39,-75.5 -45.09,-161.4 -18.99,-241.8 14.79,-45.6 39.09,-86.3 71.09,-119.99 l -245.63,-482.13 h -0.03 l -283.08,-91.91 -73.98,-24.01 -3.98,-1.33 v 119.44 l 253.45,253.45 c 76.26,76.24 118.24,177.6 118.24,285.43 v 600.9 c 0,58.69 -47.57,106.27 -106.28,106.27 -58.69,0 -106.27,-47.58 -106.27,-106.27 v -600.9 c 0,-51.05 -19.89,-99.04 -55.96,-135.12 l -103.18,-103.16 v 747.72 c 0,107.82 -42.02,209.17 -118.27,285.42 l -332.09,331.7 c 31.39,5.89 63.18,10.99 95.07,15.29 85.9,11.7 173.59,17.7 262.6,17.7 621.7,0 1176.1,-293.2 1532.5,-748.6 l 95.59,192.4 c -36.39,42.7 -74.69,84.2 -114.89,124.3 -404.2,404.2 -941.6,626.8 -1513.2,626.8 -146.8,0 -291.3,-14.7 -432,-43.4 -30.1,-6.1 -60.2,-13 -89.91,-20.4 0,0 0,0 -0.01,0 l -0.02,0.03 c -33.11,-8.24 -65.9,-17.46 -98.48,-27.29 -44.17,-13.3 -87.88,-27.87 -130.98,-44.04 l 66.19,-66.11 87.72,-87.63 421.61,-420.98 c 36.09,-36.18 55.98,-84.12 55.98,-135.19 v -487.55 l -232.49,232.48 c 19.69,41.19 30.69,87.29 30.69,135.88 0,174.8 -142.1,316.9 -316.9,316.9 -174.7,0 -316.9,-142.1 -316.9,-316.9 0,-174.7 142.2,-316.9 316.9,-316.9 48.7,0 94.8,11 135.89,30.7 h 0.07 l 382.74,-382.75 v -379.62 l -4.13,1.33 h -0.08 l -73.75,24.01 -35.7,11.61 -162.67,319.34 c -48.95,96.03 -132.39,167.29 -234.92,200.62 l -571.49,185.7 c -55.8,18.05 -115.75,-12.43 -133.94,-68.23 -18.14,-55.83 12.43,-115.81 68.23,-133.94 l 571.5,-185.71 c 48.57,-15.76 88.06,-49.49 111.22,-94.94 l 66.22,-129.99 h -0.03 l -711.08,231 c -102.52,33.37 -211.89,24.71 -308.02,-24.17 L 6072.91,7118.2 v -0.08 h -0.01 v 0.08 c 4.39,32.1 9.6,64 15.59,95.6 126.91,674.1 602.91,1226.5 1232.21,1461.7 l -151,151 C 6917.6,8720.4 6686.1,8565.4 6486.8,8366.1 6142.4,8021.8 5930,7580.8 5874.6,7104.4 c -3.61,-30.6 -6.51,-61.3 -8.8,-92.1 -3.91,-52.8 -5.8,-105.9 -5.8,-159.4 0,-27.28 0.47,-54.41 1.56,-81.54 l 105.63,53.98 87.81,44.86 v 0.1 l 502.98,257.02 c 45.45,23.15 97.28,27.21 145.78,11.46 l 463.62,-150.62 h 0.08 l 0.05,-0.02 -292.91,-149.24 c -33.2,31.5 -73.5,56.2 -119.81,71.1 -80.49,26.2 -166.39,19.5 -241.79,-19 -75.5,-38.4 -131.4,-103.9 -157.6,-184.4 -53.9,-166.2 37.29,-345.3 203.5,-399.3 32.3,-10.5 65.3,-15.7 98.3,-15.7 49.3,0 98.3,11.7 143.5,34.7 75.4,38.4 131.4,103.9 157.6,184.4 15,46.3 18.8,93.4 12.8,138.7 v 0.09 l 482.3,245.75 0.02,-0.01 283.07,-91.99 73.05,-23.78 h 0.08 l 0.78,-0.23 4.05,-1.33 -2.49,-3.43 -1.09,-1.48 v -0.07 l -44.59,-61.36 -22.03,-30.28 -354.1,-56.08 c -106.5,-16.88 -200.04,-74.21 -263.41,-161.42 l -353.23,-486.15 c -34.49,-47.47 -23.97,-113.96 23.53,-148.45 18.84,-13.71 40.72,-20.29 62.38,-20.29 32.85,0 65.28,15.18 86.07,43.81 l 353.21,486.15 c 29.99,41.3 74.3,68.42 124.72,76.42 l 144.18,22.84 -439.58,-605 c -63.38,-87.24 -89.04,-193.89 -72.11,-300.38 l 73.74,-419.11 c -29.58,14.9 -58.66,30.48 -87.36,46.78 -570.19,323.8 -961.59,927.4 -986.19,1622.8 l -189.7,-97 c 38.9,-508.7 255.7,-981.81 620.4,-1346.5 176.69,-176.7 378.79,-318.61 598.2,-422.5 28.3,-13.4 56.99,-26.19 85.89,-38.29 l 0.01,-0.03 c 47.1,-19.84 94.99,-37.74 143.45,-54.08 28.7,-9.68 57.53,-18.96 86.64,-27.4 v 0.02 c 0.01,0 0.03,-0.01 0.04,-0.01 l -15.78,89.74 -22.45,127.95 c -0.02,0.01 -0.04,0.02 -0.06,0.02 l -96.89,550.9 c -8.03,50.36 4.13,100.87 34.15,142.19 l 286.55,394.37 51.41,-324.6 c -40.19,-21.91 -76.08,-52.59 -104.66,-91.98 -102.71,-141.4 -71.3,-339.91 70,-442.7 56.2,-40.7 121.3,-60.4 185.9,-60.4 98.09,0 194.9,45.3 256.79,130.6 49.81,68.39 69.91,152.2 56.7,235.8 -13.3,83.7 -58.3,157.1 -126.79,206.79 -39.4,28.72 -83.1,46.81 -128,55.21 h -0.02 l -84.66,534.54 0.01,0.01 175.02,240.82 45.68,62.91 v 0.08 h 0.08 l 2.42,3.35 2.49,-3.43 45.69,-62.91 21.99,-30.33 0.02,-0.03 -56.09,-354.05 c -16.86,-106.56 8.76,-213.24 72.13,-300.4 l 353.19,-486.12 c 20.78,-28.63 53.2,-43.82 86.06,-43.82 21.66,0 43.54,6.59 62.39,20.31 47.5,34.49 58,100.96 23.51,148.43 l -353.19,486.16 c -30.02,41.27 -42.14,91.77 -34.17,142.19 l 22.84,144.15 0.04,-0.05 439.46,-604.97 c 63.38,-87.16 156.94,-144.47 263.43,-161.38 l 434.24,-72.89 h 0.01 c -23.1,-22.99 -46.78,-45.37 -71.08,-67.17 -344.6,-310 -800.49,-498.9 -1299.39,-498.9 -192.1,0 -377.9,28 -553.4,80.2 l 37.5,-212.8 c 166.8,-41.1 339.8,-62.3 515.9,-62.3 571.6,0 1109,222.6 1513.2,626.8 8.9,8.89 17.6,17.8 26.19,26.7 21.71,22.5 42.9,45.3 63.51,68.5 15.83,17.85 31.23,36 46.4,54.28 36.67,44.2 71.53,89.6 104.33,136.24 l -84.5,14.15 -132.43,22.23 c -0.01,-0.01 -0.02,-0.02 -0.03,-0.04 l -567.16,94.95 c -50.44,7.95 -94.73,35.16 -124.74,76.4 l -286.58,394.47 -0.01,0.01 324.62,-51.41 v -0.08 c 8.4,-45 26.5,-88.6 55.1,-128 49.79,-68.4 123.2,-113.5 206.89,-126.7 16.71,-2.7 33.61,-3.9 50.21,-3.9 66.4,0 130.9,20.8 185.59,60.5 141.41,102.7 172.81,301.3 70.21,442.7 -102.71,141.3 -301.41,172.9 -442.8,70.2 -39.3,-28.6 -70.1,-64.6 -91.9,-104.7 v -0.09 l -534.52,84.65 -0.05,0.06 -174.94,240.74 -45.45,62.52 v 0.08 l -2.72,3.74 3.97,1.33 h 0.16 l 73.83,24.01 35.62,11.54 0.03,0.01 319.34,-162.71 c 57.6,-29.36 120.02,-44.19 182.83,-44.19 41.95,0 84.1,6.61 125.18,19.94 l 571.48,185.7 c 55.8,18.14 86.37,78.12 68.23,133.94 -18.19,55.83 -78.1,86.45 -133.95,68.23 L 8833.69,6830 c -48.61,-15.76 -100.38,-11.69 -145.8,11.47 l -130,66.24 711.14,231.07 c 102.6,33.37 186.01,104.62 234.89,200.67 l 212.68,427.53 v 0.01 c 15.3,-28.6 29.9,-57.6 43.7,-87.09 118.5,-251 184.8,-531.5 184.8,-827 0,-417.1 -131.9,-803.8 -356.2,-1120.8 l 212.5,-35.7 c 220.5,341.9 338.6,740.1 338.6,1156.5 0,371.8 -94.2,729.1 -271.3,1044.7 -15.1,27.1 -30.9,53.8 -47.2,80.2"
         style="fill:#ffffff;fill-opacity:1;fill-rule:nonzero;stroke:none"
         id="path50" /></g></g></svg>
